<?xml version="1.0" encoding="utf-8"?>
<!-- Generator: Adobe Illustrator 28.1.0, SVG Export Plug-In . SVG Version: 6.00 Build 0)  -->
<svg version="1.1" id="レイヤー_1" xmlns="http://www.w3.org/2000/svg" xmlns:xlink="http://www.w3.org/1999/xlink" x="0px"
	 y="0px" viewBox="0 0 2687.86 660.06" style="enable-background:new 0 0 2687.86 660.06;" xml:space="preserve">
<g>
	<path d="M114.15,636.63c-3.2-3.2-3.2-7.2,0-20c4-17.6,31.2-85.6,48.8-121.6c6.4-13.6,11.2-24.8,10.4-25.6c-0.8-0.8-20-1.6-43.2-1.6
		c-36,0-42.4-0.8-44.8-4c-6.4-8,1.6-9.6,49.6-11.2c31.2-1.6,47.2-3.2,49.6-4.8c1.6-1.6,11.2-16.8,20.8-33.6
		c23.2-42.4,70.4-118.4,121.6-196c6.4-10.4,20.8-33.6,32-52c11.2-18.4,22.4-36,25.6-39.2c6.4-6.4,14.4-4,14.4,4
		c0,5.6-38.4,68.8-104.8,172.8c-38.4,60-84,138.4-81.6,140c4.8,4,145.6-23.2,191.2-36.8c104.8-30.4,198.4-79.2,256.8-133.6
		c38.4-36,52.8-61.6,50.4-88c-6.4-76-142.4-107.2-334.4-76.8c-122.4,19.2-230.4,64.8-290.4,122.4c-20.8,20-42.4,51.2-42.4,61.6
		c0,8.8-7.2,13.6-12.8,9.6c-16.8-11.2,11.2-57.6,58.4-96c71.2-58.4,188.8-102.4,316-117.6c156-19.2,266.4,0.8,309.6,56.8
		c9.6,12.8,16.8,32.8,16.8,45.6c0,68.8-124,165.6-278.4,218.4c-47.2,16-104.8,29.6-179.2,41.6c-30.4,4.8-43.2,8-38.4,8.8
		c83.2,15.2,112.8,23.2,201.6,52c90.4,29.6,111.2,39.2,106.4,49.6c-2.4,4.8-12,4.8-16.8,0c-5.6-5.6-33.6-16-107.2-39.2
		c-88.8-28-168-46.4-208-48l-14.4-0.8l-9.6,18.4c-13.6,26.4-38.4,83.2-46.4,106.4c-6.4,18.4-6.4,20-1.6,22.4c7.2,4,6.4,9.6-2.4,15.2
		c-8.8,5.6-16,6.4-20.8,1.6L114.15,636.63z"/>
	<path d="M786.15,400.63c25.6-16.8,36-20,37.6-12c0,1.6-6.4,6.4-16,13.6c-21.6,15.2-52,32.8-76,44.8c-33.6,16.8-46.4,20.8-63.2,20.8
		c-11.2,0-15.2-1.6-22.4-7.2c-6.4-4.8-8.8-8.8-8.8-15.2c0-10.4,8.8-32,19.2-47.2c11.2-16.8,17.6-24,23.2-24c2.4,0,4.8,1.6,7.2,4
		c3.2,3.2,1.6,7.2-10.4,26.4c-22.4,36-24,49.6-4.8,49.6c17.6,0,63.2-20,115.2-53.6H786.15z M698.15,343.83
		c-2.4-4.8,12.8-24.8,18.4-24c9.6,1.6,10.4,8,2.4,17.6C710.95,347.03,701.35,350.23,698.15,343.83z"/>
	<path d="M1031.74,388.63c3.2,5.6,0,9.6-31.2,30.4c-43.2,29.6-83.2,48.8-103.2,48c-23.2-0.8-28.8-16.8-27.2-31.2l1.6-16l-21.6,17.6
		c-35.2,28-53.6,32.8-65.6,18.4c-7.2-8.8-1.6-29.6,14.4-56.8c13.6-22.4,19.2-26.4,27.2-20c4,3.2,3.2,4.8-6.4,20.8
		c-5.6,9.6-12,21.6-14.4,27.2c-4.8,11.2-5.6,24-1.6,24s27.2-16.8,59.2-42.4c28.8-23.2,36-26.4,40-17.6c0.8,1.6-2.4,13.6-7.2,25.6
		c-4.8,12-8.8,24.8-8.8,28c0,20.8,43.2,4,113.6-44c6.4-4.8,12.8-8.8,17.6-12c5.6-4,12-5.6,14.4-0.8L1031.74,388.63z"/>
	<path d="M1044.54,283.03c-8.8-1.6-8.8-18.4,0.8-36c10.4-20,29.6-44,45.6-58.4c48-41.6,146.4-82.4,235.2-96.8
		c39.2-6.4,98.4-6.4,131.2,0c72,14.4,120.8,49.6,144,103.2c7.2,16.8,10.4,59.2,5.6,80.8c-20,93.6-124.8,212.8-259.2,295.2
		c-50.4,31.2-92,49.6-135.2,60.8c-29.6,8-75.2,8.8-99.2,1.6c-44.8-12.8-64-48-49.6-90.4c17.6-53.6,64.8-96.8,139.2-128
		c18.4-8,24-11.2,25.6-16c2.4-6.4,37.6-84.8,52.8-116.8c14.4-28.8,50.4-88.8,69.6-115.2c14.4-20,18.4-24,23.2-23.2
		c10.4,1.6,8.8,10.4-5.6,31.2c-18.4,25.6-49.6,76.8-65.6,107.2c-15.2,29.6-49.6,102.4-52,111.2c-1.6,5.6-1.6,5.6,4.8,4
		c39.2-8.8,92.8-5.6,100,5.6c7.2,11.2-0.8,16.8-12.8,9.6c-10.4-6.4-56.8-6.4-83.2,0c-10.4,2.4-19.2,5.6-20,6.4
		c-5.6,8-19.2,51.2-20,64c-0.8,16.8-5.6,22.4-13.6,16.8c-6.4-4.8-5.6-24,3.2-49.6c4-12,7.2-22.4,6.4-23.2
		c-1.6-1.6-40.8,18.4-60,30.4c-44.8,28.8-76.8,75.2-76.8,111.2c0,34.4,27.2,52.8,76.8,52.8c68.8,0,168-48,267.2-129.6
		c85.6-70.4,144.8-148,163.2-214.4c5.6-20,5.6-57.6,0-74.4c-16-50.4-66.4-87.2-135.2-99.2c-52.8-8.8-104.8-4.8-171.2,12.8
		c-85.6,23.2-148,54.4-186.4,94.4c-16.8,16.8-36.8,48.8-36.8,58.4c0,8-4,12-10.4,11.2L1044.54,283.03z"/>
	<path d="M1779.74,387.03c3.2,4-3.2,12-25.6,24.8c-41.6,24-73.6,32-106.4,32c-13.6,0-16.8,0.8-18.4,4c-2.4,6.4-24,24-34.4,27.2
		c-14.4,4.8-23.2,4-33.6-3.2c-18.4-13.6-13.6-41.6,12-72.8c6.4-8,13.6-15.2,16-16c2.4-0.8,7.2-3.2,11.2-5.6
		c4.8-3.2,11.2-4.8,17.6-4.8s12.8,1.6,16.8,4.8c12.8,12,14.4,21.6,7.2,40l-4,11.2h12.8c26.4,0,60-9.6,95.2-31.2
		c20.8-12.8,28.8-16.8,32.8-12L1779.74,387.03z M1613.34,442.23l-7.2-4c-5.6-4-13.6-8.8-16.8-13.6l-6.4-8.8l-6.4,11.2
		c-8.8,15.2-11.2,25.6-7.2,32.8c4,7.2,9.6,7.2,22.4,0.8c5.6-2.4,12.8-8,16-12L1613.34,442.23z M1626.94,413.43
		c3.2-15.2,0.8-23.2-7.2-24c-0.8,0-1.6,0-2.4,0c-8,0.8-16.8,11.2-16.8,20c0,5.6,2.4,8.8,8.8,13.6c4.8,3.2,9.6,4.8,11.2,4
		s4-7.2,5.6-13.6H1626.94z"/>
	<path d="M2096.53,387.83c2.4,5.6,0.8,7.2-36,34.4c-60,44.8-92.8,58.4-116.8,48.8c-11.2-4.8-13.6-14.4-8-34.4c2.4-9.6,6.4-22.4,8-28
		c1.6-5.6,2.4-10.4,1.6-11.2c-2.4-2.4-22.4,9.6-49.6,28.8c-24.8,17.6-34.4,21.6-42.4,16.8c-5.6-3.2-6.4-10.4-3.2-33.6
		c1.6-14.4,1.6-16.8-1.6-16.8c-10.4,0-43.2,25.6-78.4,60.8c-13.6,13.6-17.6,16-24,15.2c-6.4-0.8-7.2-1.6-7.2-11.2
		c0-19.2,29.6-84.8,39.2-88c2.4-0.8,5.6,0,7.2,1.6c4,3.2,1.6,10.4-12.8,41.6c-5.6,11.2-9.6,20.8-8.8,20.8s8.8-6.4,18.4-14.4
		c35.2-30.4,52.8-41.6,68-41.6c17.6,0,22.4,9.6,17.6,37.6l-2.4,13.6l22.4-16c31.2-22.4,44-28.8,56.8-30.4c9.6-0.8,12,0,16,5.6
		c4.8,5.6,4.8,7.2-2.4,32.8c-10.4,35.2-10.4,33.6-6.4,38.4c3.2,4,4.8,4,16.8,0.8c22.4-6.4,44-21.6,89.6-56
		c25.6-19.2,33.6-23.2,36.8-16H2096.53z"/>
	<path d="M2307.73,388.63c3.2,5.6,0,9.6-31.2,30.4c-43.2,29.6-83.2,48.8-103.2,48c-23.2-0.8-28.8-16.8-27.2-31.2l1.6-16l-21.6,17.6
		c-35.2,28-53.6,32.8-65.6,18.4c-7.2-8.8-1.6-29.6,14.4-56.8c13.6-22.4,19.2-26.4,27.2-20c4,3.2,3.2,4.8-6.4,20.8
		c-5.6,9.6-12,21.6-14.4,27.2c-4.8,11.2-5.6,24-1.6,24s27.2-16.8,59.2-42.4c28.8-23.2,36-26.4,40-17.6c0.8,1.6-2.4,13.6-7.2,25.6
		c-4.8,12-8.8,24.8-8.8,28c0,20.8,43.2,4,113.6-44c6.4-4.8,12.8-8.8,17.6-12c5.6-4,12-5.6,14.4-0.8L2307.73,388.63z"/>
	<path d="M2440.53,389.43c17.6-6.4,25.6-6.4,25.6,0.8c0,2.4-4,5.6-10.4,8.8c-10.4,4.8-27.2,8.8-41.6,9.6
		c-23.2,1.6-35.2-4.8-44.8-14.4c-4-4-8-7.2-9.6-7.2c-4,0-34.4,29.6-61.6,59.2c-13.6,15.2-26.4,27.2-28.8,27.2s-5.6-1.6-7.2-3.2
		c-4.8-4.8,4-26.4,24.8-60c17.6-28.8,23.2-33.6,30.4-27.2c4,3.2,4,4-1.6,13.6c-6.4,9.6-5.6,9.6,18.4-9.6c29.6-23.2,33.6-24,43.2-8
		c6.4,9.6,10.4,14.4,29.6,14.4c11.2,0,20.8-1.6,32.8-5.6L2440.53,389.43z"/>
	<path d="M2653.32,391.83c15.2-10.4,19.2-9.6,19.2-0.8c0,1.6-3.2,5.6-8.8,11.2c-16,16-46.4,39.2-65.6,50.4
		c-35.2,20-55.2,22.4-71.2,9.6c-8.8-7.2-9.6-9.6-9.6-21.6v-13.6l-19.2,14.4c-36.8,28-63.2,37.6-77.6,28.8c-20-12,7.2-60.8,46.4-83.2
		c11.2-6.4,21.6-9.6,30.4-9.6c11.2,0,20,4.8,24.8,14.4l4,8l8-6.4c8.8-7.2,12-8,16.8-3.2c3.2,3.2,2.4,6.4-4.8,19.2
		c-10.4,19.2-13.6,33.6-8.8,40.8c3.2,4,5.6,4.8,15.2,4c18.4-1.6,40.8-13.6,77.6-43.2c10.4-8,18.4-14.4,24.8-18.4L2653.32,391.83z
		 M2492.52,427.03c18.4-13.6,19.2-14.4,16.8-22.4c-1.6-4.8-4-9.6-5.6-10.4c-0.8-0.8-2.4-1.6-4-1.6c-17.6-0.8-61.6,36.8-67.2,60
		c-2.4,10.4,2.4,9.6,23.2-2.4c8.8-5.6,24.8-16,35.2-24L2492.52,427.03z"/>
</g>
</svg>
