<?xml version="1.0" encoding="utf-8"?>
<!-- Generator: Adobe Illustrator 28.1.0, SVG Export Plug-In . SVG Version: 6.00 Build 0)  -->
<svg version="1.1" id="レイヤー_1" xmlns="http://www.w3.org/2000/svg" xmlns:xlink="http://www.w3.org/1999/xlink" x="0px"
	 y="0px" viewBox="0 0 2763.83 477.64" style="enable-background:new 0 0 2763.83 477.64;" xml:space="preserve">
<g>
	<path d="M277.61,195.17l-55.8,4.05c-9.6,47.1-24.23,90.3-43.88,129.6c-19.65,39.3-43.88,72.9-72.67,100.8
		c-12.6-23.1-24.6-42.15-36-57.15c-11.41-15-23.4-28.35-36-40.05c20.4-16.2,36.75-34.57,49.05-55.12
		c12.3-20.55,21.9-45.52,28.8-74.93h-41.4l-0.9-89.55l55.35-0.45l1.8-27.45h108.45c0,5.4-0.3,13.2-0.9,23.4
		c30.6-2.1,55.2-4.05,73.8-5.85v53.55c41.4-6.6,83.09-9.9,125.1-9.9h16.2l12.6,94.5c-5.1-0.3-12.9-0.45-23.4-0.45
		c-49.21,0-102.6,5.1-160.2,15.3V195.17z M402.04,326.12c26.55-3.3,46.72-7.35,60.53-12.15c-8.1,25.2-13.8,60.6-17.1,106.2
		c-12.6,3-27.6,5.33-45,6.97c-17.4,1.65-35.1,2.48-53.1,2.48c-8.1,0-18.75-0.3-31.95-0.9c-78.3-4.2-117.45-29.55-117.45-76.05
		c0-17.1,5.25-37.05,15.75-59.85c18.6-2.1,35.47-4.87,50.63-8.33c15.15-3.45,26.92-6.98,35.33-10.57
		c-2.1,12.6-3.15,21.45-3.15,26.55c0,12,2.7,20.1,8.1,24.3c5.4,4.21,13.95,6.3,25.65,6.3C351.56,331.07,375.49,329.42,402.04,326.12
		z"/>
	<path d="M659.44,366.84c-54.45-37.35-95.78-65.17-123.98-83.48c-16.8-11.1-25.2-21.75-25.2-31.95c0-7.5,4.79-14.85,14.4-22.05
		l15.75-10.8c88.2-59.1,155.25-108.3,201.15-147.6c29.4,7.2,55.42,13.2,78.07,18c22.65,4.8,46.58,8.85,71.78,12.15
		c-62.4,41.7-136.5,88.95-222.3,141.75c-2.4,1.5-3.6,3-3.6,4.5c0,1.8,1.5,3.6,4.5,5.4c72.6,41.4,145.5,85.35,218.7,131.85
		c-18.9,6.9-36.38,14.55-52.43,22.95c-16.05,8.4-35.32,19.2-57.82,32.4l-9,5.4C750.56,430.37,713.89,404.2,659.44,366.84z"/>
	<path d="M1357.16,308.57c-3.9,16.2-6.38,32.4-7.42,48.6c-1.05,16.2-1.58,36.45-1.58,60.75c-64.8,4.5-130.05,6.75-195.75,6.75
		c-62.1,0-108.38-8.78-138.83-26.33c-30.45-17.55-45.67-44.02-45.67-79.42c0-35.4,20.4-67.5,61.2-96.3
		c-12.3-28.8-29.85-64.35-52.65-106.65c-1.8-3.9-4.5-9.15-8.1-15.75l124.65-20.7c14.1,34.8,25.65,65.85,34.65,93.15
		c51.6-20.1,117.29-39.3,197.1-57.6l22.05,102.6c-81,20.1-141,36.3-180,48.6c-39,12.3-65.25,24.15-78.75,35.55
		c-2.7,2.1-4.05,4.05-4.05,5.85c0,4.8,8.33,8.03,24.98,9.67c16.65,1.65,38.47,2.48,65.47,2.48
		C1237.76,319.82,1298.66,316.07,1357.16,308.57z"/>
	<path d="M1714.46,109.45c31.8,14.85,56.77,35.32,74.92,61.42c18.15,26.1,27.23,55.35,27.23,87.75c0,30-6.91,57.38-20.7,82.12
		c-13.8,24.75-33.08,45.23-57.83,61.43c-24.75,16.2-53.18,26.85-85.27,31.95c-13.8-24.3-31.95-44.4-54.45-60.3
		c-11.1,14.4-24,24.9-38.7,31.5c-14.7,6.6-31.8,9.9-51.3,9.9c-37.2,0-66.38-10.87-87.53-32.62c-21.15-21.75-31.72-51.67-31.72-89.77
		c0-38.1,9.6-72.82,28.8-104.18c19.2-31.35,45.45-56.1,78.75-74.25c33.3-18.15,70.2-27.22,110.7-27.22
		C1646.96,87.17,1682.66,94.59,1714.46,109.45z M1529.29,298.89c3.75-5.85,7.42-17.25,11.03-34.2c3.6-16.95,7.8-43.57,12.6-79.88
		c-18.6,7.8-33.15,19.65-43.65,35.55c-10.5,15.9-15.75,34.35-15.75,55.35c0,21.3,6.9,31.95,20.7,31.95
		C1520.51,307.67,1525.53,304.74,1529.29,298.89z M1682.51,314.42c13.2-14.7,19.8-34.65,19.8-59.85c0-35.4-16.5-59.25-49.5-71.55
		c-4.21,37.2-9.38,69.08-15.53,95.63c-6.15,26.55-13.58,48.98-22.28,67.28C1646.81,339.62,1669.31,329.12,1682.51,314.42z"/>
	<path d="M1972.31,102.92c-8.1,62.7-12.15,117.3-12.15,163.8c0,31.5,1.72,59.78,5.17,84.83c3.45,25.05,8.33,49.58,14.62,73.57
		l-112.95,4.95c-5.1-25.5-9-50.1-11.7-73.8c-2.7-23.7-4.05-50.25-4.05-79.65c0-48.3,3.75-106.2,11.25-173.7H1972.31z
		 M2214.86,277.97c21.6,6.6,41.7,13.5,60.3,20.7l-27.9,103.95l-34.65-24.3c-4.8,17.1-15.53,30.23-32.17,39.38
		c-16.65,9.15-36.38,13.73-59.18,13.73c-50.1,0-87.75-7.65-112.95-22.95c-25.2-15.3-37.8-37.35-37.8-66.15
		c0-28.2,10.72-49.65,32.18-64.35c21.45-14.7,49.72-22.05,84.82-22.05c3.9,0,11.25,0.3,22.05,0.9v-39.15
		c-45.9,0.6-85.95,1.65-120.15,3.15v-97.65c39-1.8,79.04-2.7,120.15-2.7V97.52h72c2.4-16.8,3.6-32.7,3.6-47.7
		c0-7.8-0.15-13.65-0.45-17.55l41.85,0.9c0.6,9,0.9,15.75,0.9,20.25c0,16.2-1.8,34.65-5.4,55.35h-7.2v12.15l54.9,1.35v94.5h-54.9
		V277.97z M2109.56,326.12c-5.11-1.2-10.96-1.8-17.55-1.8c-6.6,0-11.63,0.98-15.07,2.92c-3.45,1.95-5.18,4.27-5.18,6.98
		c0,3.3,2.25,6.38,6.75,9.23c4.5,2.85,10.2,4.27,17.1,4.27c9.29,0,13.95-5.7,13.95-17.1V326.12z M2281.46,34.07
		c0.3,4.2,0.45,10.65,0.45,19.35c0,21-1.65,39.9-4.95,56.7l-42.3-0.9c3.6-18.9,5.4-38.4,5.4-58.5c0-7.5-0.16-13.2-0.45-17.1
		L2281.46,34.07z"/>
	<path d="M2558.21,146.8c16.5,5.55,27.82,15.68,33.97,30.38c6.15,14.7,9.23,37.35,9.23,67.95c0,39.3-0.61,68.63-1.8,87.98
		c-1.2,19.35-3.53,34.13-6.97,44.33c-3.45,10.2-8.78,19.2-15.97,27c-7.8,8.4-22.05,14.93-42.75,19.57
		c-20.7,4.65-50.11,8.02-88.2,10.12c-4.8-33-10.96-58.65-18.45-76.95c-6.6,20.4-15.46,44.55-26.55,72.45
		c-37.8-13.5-76.8-24-117-31.5c19.2-28.8,34.2-55.87,45-81.23c10.8-25.35,18.75-53.32,23.85-83.92l-55.35,5.4
		c0.6-33.6-3.45-65.25-12.15-94.95c32.4-1.2,57.6-1.95,75.6-2.25c0.29-11.7,0.45-30.3,0.45-55.8h110.7c-0.6,14.7-1.8,32.4-3.6,53.1
		h13.95C2516.36,138.47,2541.71,141.25,2558.21,146.8z M2499.48,307.22c2.25-11.1,3.38-25.35,3.38-42.75c0-12.3-0.67-21-2.02-26.1
		c-1.35-5.1-4.05-8.47-8.1-10.12c-4.05-1.65-11.02-2.48-20.92-2.48c-5.7,0-10.35,0.15-13.95,0.45c-6.3,39-13.95,73.8-22.95,104.4
		c12.89,1.5,23.1,2.25,30.6,2.25c13.2,0,21.45-1.5,24.75-4.5C2494.16,325.37,2497.23,318.32,2499.48,307.22z M2686.01,106.07
		c13.5,45.9,23.25,85.05,29.25,117.45c6,32.4,11.25,75.15,15.75,128.25l-105.75,14.85c-1.5-49.8-5.48-93-11.92-129.6
		c-6.46-36.6-17.18-77.7-32.17-123.3L2686.01,106.07z"/>
</g>
</svg>
